<svg width="282" height="597" viewBox="0 0 282 597" fill="none" xmlns="http://www.w3.org/2000/svg">
<g filter="url(#filter0_f_7011_45)">
<circle cx="-16.5" cy="298.5" r="98.5" fill="#08F709" fill-opacity="0.5"/>
</g>
<path fill-rule="evenodd" clip-rule="evenodd" d="M51.428 259.709L17.9352 341.002L94.0957 330.991L94.1224 331.026L94.1831 330.979L104.791 329.585L51.428 259.709ZM95.3336 328.009L99.6499 327.441L57.3082 271.997L55.6437 276.037L95.3336 328.009ZM35.3488 325.296L33.6837 329.338L77.8831 323.425L75.1984 319.909L35.3488 325.296ZM36.5795 322.309L42.8781 321.458L58.2754 284.086L54.4119 279.027L36.5795 322.309ZM46.0778 321.025L63.2854 318.699L58.866 312.912L56.0819 319.669L52.8874 320.089L56.9033 310.342L52.7305 304.878L46.0778 321.025ZM66.4716 318.268L73.2459 317.353L56.5813 295.531L53.9623 301.888L66.4716 318.268ZM55.3455 269.427L30.4859 329.766L25.2903 330.461L52.1566 265.251L55.3455 269.427ZM22.348 337.602L24.0606 333.446L89.3047 324.717L92.1391 328.428L22.348 337.602ZM60.238 286.656L87.3506 322.158L81.0725 322.998L57.8132 292.541L60.238 286.656Z" fill="#228B22"/>
<defs>
<filter id="filter0_f_7011_45" x="-315" y="0" width="597" height="597" filterUnits="userSpaceOnUse" color-interpolation-filters="sRGB">
<feFlood flood-opacity="0" result="BackgroundImageFix"/>
<feBlend mode="normal" in="SourceGraphic" in2="BackgroundImageFix" result="shape"/>
<feGaussianBlur stdDeviation="100" result="effect1_foregroundBlur_7011_45"/>
</filter>
</defs>
</svg>
