<svg width="282" height="598" viewBox="0 0 282 598" fill="none" xmlns="http://www.w3.org/2000/svg">
<g filter="url(#filter0_f_7011_49)">
<circle cx="-16.5" cy="298.769" r="98.5" fill="#08F709" fill-opacity="0.5"/>
</g>
<path fill-rule="evenodd" clip-rule="evenodd" d="M51.428 259.978L17.9352 341.271L94.0957 331.26L94.1224 331.295L94.1831 331.248L104.791 329.854L51.428 259.978ZM95.3336 328.278L99.6499 327.71L57.3082 272.266L55.6437 276.306L95.3336 328.278ZM35.3488 325.565L33.6837 329.607L77.8831 323.694L75.1984 320.178L35.3488 325.565ZM36.5795 322.578L42.8781 321.727L58.2754 284.355L54.4119 279.296L36.5795 322.578ZM46.0778 321.294L63.2854 318.968L58.866 313.181L56.0819 319.938L52.8874 320.358L56.9033 310.611L52.7305 305.147L46.0778 321.294ZM66.4716 318.537L73.2459 317.622L56.5813 295.8L53.9623 302.157L66.4716 318.537ZM55.3455 269.696L30.4859 330.035L25.2903 330.73L52.1566 265.52L55.3455 269.696ZM22.348 337.871L24.0606 333.715L89.3047 324.986L92.1391 328.698L22.348 337.871ZM60.238 286.925L87.3506 322.427L81.0725 323.267L57.8132 292.81L60.238 286.925Z" fill="#228B22"/>
<defs>
<filter id="filter0_f_7011_49" x="-315" y="0.269043" width="597" height="597" filterUnits="userSpaceOnUse" color-interpolation-filters="sRGB">
<feFlood flood-opacity="0" result="BackgroundImageFix"/>
<feBlend mode="normal" in="SourceGraphic" in2="BackgroundImageFix" result="shape"/>
<feGaussianBlur stdDeviation="100" result="effect1_foregroundBlur_7011_49"/>
</filter>
</defs>
</svg>
