<svg width="324" height="597" viewBox="0 0 324 597" fill="none" xmlns="http://www.w3.org/2000/svg">
<g filter="url(#filter0_f_7011_48)">
<circle cx="298.5" cy="298.5" r="98.5" fill="#08F709" fill-opacity="0.5"/>
</g>
<path fill-rule="evenodd" clip-rule="evenodd" d="M234.654 234.651L300.959 245.654L289.956 311.959L223.651 300.956L234.654 234.651ZM227.259 298.375L235.845 299.8L237.27 291.213L228.684 289.789L227.259 298.375ZM242.476 300.9L238.939 300.313L240.878 288.632L229.197 286.694L229.784 283.158L245.001 285.683L242.476 300.9ZM249.106 302L245.57 301.413L248.609 283.102L230.297 280.064L230.884 276.528L252.731 280.153L249.106 302ZM255.737 303.1L252.2 302.514L256.339 277.572L231.398 273.433L231.985 269.897L260.462 274.623L255.737 303.1ZM287.375 308.351L258.831 303.614L259.293 300.829L285.052 305.104L289.322 279.378L292.106 279.84L287.375 308.351ZM286.227 278.864L282.472 301.496L259.807 297.735L260.393 294.199L279.522 297.373L282.691 278.277L286.227 278.864ZM279.597 277.764L276.941 293.765L260.907 291.105L261.494 287.568L273.992 289.642L276.061 277.177L279.597 277.764ZM272.966 276.664L263.562 275.103L262.007 284.474L271.411 286.035L272.966 276.664ZM295.921 256.854L297.351 248.235L288.731 246.804L287.301 255.424L295.921 256.854ZM295.407 259.948L283.693 258.005L285.637 246.291L282.101 245.704L279.57 260.954L294.82 263.484L295.407 259.948ZM294.307 266.579L275.962 263.535L279.007 245.19L275.47 244.604L271.84 266.484L293.72 270.115L294.307 266.579ZM292.62 276.745L293.206 273.209L268.232 269.065L272.376 244.09L268.84 243.503L264.109 272.014L292.62 276.745ZM265.746 242.99L237.235 238.259L232.498 266.803L235.283 267.265L239.557 241.505L265.284 245.774L265.746 242.99ZM242.138 245.113L238.377 267.778L241.913 268.365L245.087 249.236L264.183 252.405L264.77 248.869L242.138 245.113ZM247.668 252.844L245.007 268.879L248.544 269.465L250.618 256.967L263.083 259.035L263.67 255.499L247.668 252.844ZM261.009 271.534L251.638 269.979L253.199 260.575L262.569 262.13L261.009 271.534Z" fill="#228B22"/>
<defs>
<filter id="filter0_f_7011_48" x="0" y="0" width="597" height="597" filterUnits="userSpaceOnUse" color-interpolation-filters="sRGB">
<feFlood flood-opacity="0" result="BackgroundImageFix"/>
<feBlend mode="normal" in="SourceGraphic" in2="BackgroundImageFix" result="shape"/>
<feGaussianBlur stdDeviation="100" result="effect1_foregroundBlur_7011_48"/>
</filter>
</defs>
</svg>
