<svg width="284" height="597" viewBox="0 0 284 597" fill="none" xmlns="http://www.w3.org/2000/svg">
<g filter="url(#filter0_f_7011_47)">
<circle cx="-14.5" cy="298.5" r="98.5" fill="#08F709" fill-opacity="0.5"/>
</g>
<path fill-rule="evenodd" clip-rule="evenodd" d="M104.283 291.704L63.7152 274.958L28.8529 301.619L34.5587 345.027L75.1267 361.774L109.989 335.112L104.283 291.704ZM39.1527 297.383L33.2915 301.865L67.6468 315.991L66.6891 308.704L39.1527 297.383ZM41.8117 295.349L66.2546 305.399L65.2965 298.11L47.6749 290.865L41.8117 295.349ZM50.334 288.832L64.862 294.805L63.9043 287.519L56.1952 284.349L50.334 288.832ZM58.8542 282.316L63.4698 284.213L62.8216 279.282L58.8542 282.316ZM66.7786 287.141L67.7363 294.427L80.2273 284.902L73.4067 282.087L66.7786 287.141ZM70.3125 280.81L66.3441 283.836L65.6959 278.904L70.3125 280.81ZM69.1289 305.021L68.1708 297.733L83.3215 286.18L90.1443 288.996L69.1289 305.021ZM69.5633 308.327L70.5211 315.613L100.059 293.089L93.2385 290.273L69.5633 308.327ZM33.1167 311.813L32.159 304.526L68.0813 319.296L73.146 357.827L66.1194 354.927L62.014 323.694L33.1167 311.813ZM76.0203 357.45L70.9556 318.918L101.841 295.367L102.798 302.653L77.9532 321.599L82.0586 352.832L76.0203 357.45ZM34.5089 322.404L33.5512 315.118L59.3575 325.728L60.3152 333.014L34.5089 322.404ZM34.9434 325.71L60.7497 336.32L61.7257 343.745L35.9021 333.003L34.9434 325.71ZM36.3376 336.316L62.1612 347.058L63.0277 353.65L37.2155 342.995L36.3376 336.316ZM106.897 333.836L84.7155 350.8L83.8361 344.109L106.018 327.147L106.897 333.836ZM105.583 323.839L83.4012 340.801L82.4375 333.469L104.625 316.55L105.583 323.839ZM104.191 313.245L82.003 330.164L81.0453 322.878L103.233 305.959L104.191 313.245Z" fill="#228B22"/>
<defs>
<filter id="filter0_f_7011_47" x="-313" y="0" width="597" height="597" filterUnits="userSpaceOnUse" color-interpolation-filters="sRGB">
<feFlood flood-opacity="0" result="BackgroundImageFix"/>
<feBlend mode="normal" in="SourceGraphic" in2="BackgroundImageFix" result="shape"/>
<feGaussianBlur stdDeviation="100" result="effect1_foregroundBlur_7011_47"/>
</filter>
</defs>
</svg>
