<svg width="64" height="64" viewBox="0 0 64 64" fill="none" xmlns="http://www.w3.org/2000/svg">
<g filter="url(#filter0_b_1283_761)">
<rect width="64" height="64" rx="4" fill="white" fill-opacity="0.04"/>
<path d="M17.8562 17.8572L13.999 21.7144H17.8803H21.7535V17.8572C21.7535 15.7358 21.7455 14.0001 21.7294 14.0001C21.7213 14.0001 19.9776 15.7358 17.8562 17.8572Z" fill="#228B22"/>
<path d="M23.0395 17.7929C23.0395 19.8821 22.9994 21.7384 22.9592 21.9071C22.8708 22.3009 22.6619 22.5902 22.3083 22.7991C22.0431 22.9518 21.8663 22.9598 18.0413 22.9839L14.0396 23.008V36.0821C14.0396 48.9875 14.0396 49.1562 14.2003 49.4214C14.2887 49.5661 14.4735 49.7509 14.6181 49.8393C14.8833 50 15.0521 50 26.8967 50C38.7413 50 38.9101 50 39.1753 49.8393C39.3199 49.7509 39.5047 49.5661 39.5931 49.4214C39.7458 49.1643 39.7538 49.0036 39.7538 43.8045V38.4527L38.9583 38.4125C37.8654 38.3562 37.4315 38.0911 37.2628 37.3357C37.1663 36.9259 37.1663 27.0741 37.2628 26.6643C37.4315 25.9089 37.8654 25.6437 38.9583 25.5875L39.7538 25.5473V20.1955C39.7538 14.9964 39.7458 14.8357 39.5931 14.5786C39.5047 14.4339 39.3199 14.2491 39.1753 14.1607C38.9181 14 38.7494 14 30.9788 14H23.0395V17.7929ZM34.2895 25.7321C34.4985 25.8446 34.611 26.2384 34.611 26.9054V27.5H34.8842C35.0288 27.5 35.2699 27.5402 35.4145 27.5884C35.8726 27.7491 35.8967 27.9179 35.8967 30.7143C35.8967 33.5107 35.8726 33.6795 35.4145 33.8402C35.2699 33.8884 35.0288 33.9286 34.8842 33.9286H34.611V35.1741C34.611 36.5804 34.5226 36.942 34.177 37.0304C34.0646 37.0545 33.8717 37.0545 33.7592 37.0304C33.4137 36.942 33.3253 36.5804 33.3253 35.1741V33.9286H33.052C32.586 33.9286 32.2726 33.7679 32.1521 33.4786C31.9913 33.0929 31.9913 28.3357 32.1521 27.95C32.2726 27.6607 32.586 27.5 33.052 27.5H33.3253V26.9054C33.3253 26.2625 33.4137 25.9089 33.6226 25.7482C33.7833 25.6357 34.0806 25.6196 34.2895 25.7321ZM18.861 29.5893C19.094 29.7179 19.1824 30.1196 19.1824 31.0839V32H19.4556C19.9217 32 20.2351 32.1607 20.3556 32.45C20.5163 32.8357 20.5163 36.3071 20.3556 36.6929C20.2351 36.9821 19.9217 37.1429 19.4556 37.1429H19.1824V38.067C19.1824 39.4009 18.9815 39.7625 18.3306 39.6018C18.0092 39.5134 17.8967 39.1357 17.8967 38.067V37.1429H17.6235C17.1574 37.1429 16.844 36.9821 16.7235 36.6929C16.5628 36.3071 16.5628 32.8357 16.7235 32.45C16.844 32.1607 17.1574 32 17.6235 32H17.8967V31.0839C17.8967 30.1357 17.969 29.7821 18.194 29.6054C18.3547 29.4929 18.6521 29.4768 18.861 29.5893ZM30.4324 30.2321C30.6976 30.3687 30.7538 30.7625 30.7538 32.3696V33.9286H31.0351C31.4931 33.9286 31.8467 34.1134 31.9512 34.4107C32.0958 34.8286 32.0717 41.4821 31.927 41.8357C31.8065 42.125 31.4931 42.2857 31.0271 42.2857H30.7538V43.2098C30.7538 44.5437 30.5529 44.9054 29.9021 44.7446C29.5806 44.6562 29.4681 44.2786 29.4681 43.2098V42.2857H29.1949C28.7288 42.2857 28.4154 42.125 28.2949 41.8357C28.1503 41.4821 28.1262 34.8286 28.2708 34.4107C28.3753 34.1134 28.7288 33.9286 29.1869 33.9286H29.4681V32.3696C29.4681 30.7946 29.5163 30.4411 29.7654 30.2482C29.9262 30.1357 30.2235 30.1196 30.4324 30.2321ZM22.7181 36.0179C22.9271 36.1304 23.0395 36.5241 23.0395 37.1911V37.7857H23.3128C23.4574 37.7857 23.6985 37.8259 23.8431 37.8741C24.269 38.0268 24.3253 38.2839 24.3253 40.0357C24.3253 41.7875 24.269 42.0446 23.8431 42.1973C23.6985 42.2455 23.4574 42.2857 23.3128 42.2857H23.0395V44.4955C23.0395 46.2393 23.0154 46.7696 22.9271 46.9866C22.7985 47.2839 22.5413 47.4045 22.1878 47.3161C21.794 47.2116 21.7538 46.9304 21.7538 44.4955V42.2857H21.4806C21.0146 42.2857 20.7012 42.125 20.5806 41.8357C20.4199 41.458 20.4199 38.6134 20.5806 38.2357C20.7012 37.9464 21.0146 37.7857 21.4806 37.7857H21.7538V37.1911C21.7538 36.5482 21.8422 36.1946 22.0512 36.0339C22.2119 35.9214 22.5092 35.9054 22.7181 36.0179ZM26.5753 38.5893C26.8404 38.7259 26.8967 39.1196 26.8967 40.7268V42.2857H27.1779C27.636 42.2857 27.9895 42.4705 28.094 42.7679C28.2226 43.1616 28.2146 45.3554 28.0699 45.6929C27.9494 45.9902 27.6279 46.1429 27.1458 46.1429C26.8967 46.1429 26.8404 46.175 26.7601 46.3839C26.5994 46.8098 25.9083 46.8098 25.7476 46.3839C25.6672 46.175 25.611 46.1429 25.3619 46.1429C24.8797 46.1429 24.5583 45.9902 24.4378 45.6929C24.2931 45.3554 24.2851 43.1616 24.4137 42.7679C24.5181 42.4705 24.8717 42.2857 25.3297 42.2857H25.611V40.7268C25.611 39.1518 25.6592 38.7982 25.9083 38.6054C26.069 38.4929 26.3663 38.4768 26.5753 38.5893Z" fill="#228B22"/>
<path d="M46.5042 23.1363C46.2631 23.2247 45.9658 23.4416 45.6364 23.7791L45.1221 24.2854H44.1658C43.4828 24.2854 43.1373 24.3175 42.9846 24.3979C42.864 24.4622 42.2453 25.0407 41.6024 25.6836L40.4373 26.8568H39.4569H38.4685V28.1425V29.4282H39.9551C41.0962 29.4282 41.498 29.4041 41.6667 29.3157C41.7873 29.2514 42.406 28.6729 43.0489 28.03L44.214 26.8568H44.664C45.1221 26.8568 45.1301 26.8568 45.6364 27.363C46.2712 28.0059 46.7051 28.1747 47.6131 28.1264C48.6256 28.0782 49.381 27.5961 49.8069 26.7282C50.0881 26.1577 50.1203 25.2175 49.8792 24.5827C49.6462 23.9639 49.0756 23.3934 48.473 23.1684C47.9265 22.9675 47.0346 22.9514 46.5042 23.1363Z" fill="#228B22"/>
<path d="M46.5042 29.5646C46.2631 29.653 45.9658 29.87 45.6364 30.2075L45.1221 30.7137H41.7953H38.4685V31.9994V33.2851H41.7953H45.1221L45.6364 33.7914C46.2712 34.4343 46.7051 34.603 47.6131 34.5548C48.6256 34.5066 49.381 34.0244 49.8069 33.1566C50.0881 32.586 50.1203 31.6459 49.8792 31.011C49.6462 30.3923 49.0756 29.8218 48.473 29.5968C47.9265 29.3959 47.0346 29.3798 46.5042 29.5646Z" fill="#228B22"/>
<path d="M38.4685 35.8567V37.1424H39.4569H40.4373L41.6024 38.3156C42.2453 38.9585 42.864 39.5371 42.9846 39.6014C43.1373 39.6817 43.4828 39.7139 44.1658 39.7139H45.1221L45.6364 40.2201C46.2712 40.863 46.7051 41.0317 47.6131 40.9835C48.6256 40.9353 49.381 40.4531 49.8069 39.5853C50.0881 39.0147 50.1203 38.0746 49.8792 37.4397C49.5176 36.4674 48.5855 35.8567 47.4765 35.8567C46.6569 35.8567 46.231 36.0335 45.6364 36.6362C45.1301 37.1424 45.1221 37.1424 44.664 37.1424H44.214L43.0489 35.9692C42.406 35.3264 41.7873 34.7478 41.6667 34.6835C41.498 34.5951 41.0962 34.571 39.9551 34.571H38.4685V35.8567Z" fill="#228B22"/>
</g>
<defs>
<filter id="filter0_b_1283_761" x="-32" y="-32" width="128" height="128" filterUnits="userSpaceOnUse" color-interpolation-filters="sRGB">
<feFlood flood-opacity="0" result="BackgroundImageFix"/>
<feGaussianBlur in="BackgroundImageFix" stdDeviation="16"/>
<feComposite in2="SourceAlpha" operator="in" result="effect1_backgroundBlur_1283_761"/>
<feBlend mode="normal" in="SourceGraphic" in2="effect1_backgroundBlur_1283_761" result="shape"/>
</filter>
</defs>
</svg>
