<svg width="64" height="64" viewBox="0 0 64 64" fill="none" xmlns="http://www.w3.org/2000/svg">
<g filter="url(#filter0_b_1283_750)">
<rect width="64" height="64" rx="4" fill="white" fill-opacity="0.04"/>
<path fill-rule="evenodd" clip-rule="evenodd" d="M38.2931 16.057C37.5434 16.1687 37.3571 16.304 36.9919 17.0015C36.241 18.4356 35.1142 19.1433 33.442 19.2312L32.6403 19.2733L32.3196 19.5993C31.7391 20.1892 30.8345 22.0141 30.8385 22.5874C30.8399 22.7926 30.9285 23.0204 31.1217 23.3157C31.8553 24.4367 31.9199 26.0275 31.2802 27.2169C31.1745 27.4135 31.066 27.6504 31.0392 27.7433C30.8859 28.2743 32.2922 30.6193 33.0251 31.0548C33.1978 31.1574 33.427 31.2075 33.7259 31.2076C34.9973 31.2085 36.249 31.9061 37.0032 33.0344C37.451 33.7044 37.6688 33.7887 39.0943 33.8439C40.2278 33.8878 41.3725 33.7848 41.664 33.6127C41.7567 33.5579 41.9709 33.2838 42.1398 33.0037C42.3088 32.7235 42.6423 32.3142 42.8811 32.0941C43.6184 31.4145 44.2974 31.145 45.4885 31.0592C46.1999 31.008 46.3388 30.9745 46.5194 30.811C47.1089 30.2768 48.1453 28.4824 48.2157 27.8737C48.2497 27.5806 48.2133 27.4756 47.9294 27.0482C47.4655 26.3494 47.2719 25.7271 47.2719 24.9342C47.2719 24.1379 47.4159 23.6319 47.8802 22.7958C48.0748 22.4453 48.234 22.0642 48.234 21.9489C48.234 21.4818 47.0348 19.4467 46.5936 19.165C46.4814 19.0935 46.1281 19.0592 45.468 19.0559C44.3041 19.0501 43.6766 18.8743 42.9438 18.3485C42.4141 17.9685 42.1073 17.5953 41.6927 16.8267C41.2989 16.0968 41.1586 16.0336 39.8658 16.0037C39.2871 15.9903 38.5794 16.0143 38.2931 16.057ZM40.4972 20.0725C42.3356 20.3917 43.9395 21.8413 44.4318 23.6283C44.5234 23.9612 44.5712 24.4189 44.5704 24.9567C44.5695 25.6422 44.5334 25.8799 44.3513 26.4015C44.0745 27.1944 43.6774 27.8315 43.1233 28.3716C42.1178 29.3517 40.9634 29.8149 39.5338 29.812C38.6259 29.8102 38.1984 29.7133 37.3304 29.3128C36.4585 28.9104 35.5116 28.0191 35.0686 27.1837C34.2049 25.5549 34.3058 23.6845 35.3386 22.1795C36.1221 21.0378 37.3423 20.2649 38.7132 20.0423C39.3377 19.9409 39.7828 19.9484 40.4972 20.0725ZM26.0661 32.7296C25.427 32.8446 24.6267 33.0968 24.1476 33.3343C23.113 33.847 22.008 34.8206 21.3089 35.8353L20.8935 36.4384L20.9142 40.4065L20.935 44.3746L21.1079 44.3986C21.2114 44.413 21.492 44.2818 21.8064 44.0719C23.2069 43.1374 24.9465 42.6158 26.6578 42.6171C27.6843 42.6179 28.1123 42.6936 29.9365 43.1972C32.779 43.982 34.9252 44.336 36.8334 44.3349C38.0671 44.3343 38.6035 44.2663 39.6289 43.9806C40.9981 43.5992 43.0908 42.4453 45.1298 40.9475C46.5232 39.9239 48.2085 38.3111 50.0379 36.2506C50.9432 35.2309 51 35.1472 51 34.8335C51 34.5753 50.9497 34.4489 50.7769 34.2731C50.1616 33.6472 48.9824 33.4299 48.0661 33.7735C47.9518 33.8164 47.216 34.2611 46.431 34.7617C45.646 35.2623 44.6933 35.8236 44.3139 36.0092C43.0177 36.6431 41.5391 36.9903 40.1358 36.9903C39.6066 36.9903 39.3288 37.0218 39.2749 37.088C39.2311 37.1418 39.1773 37.4153 39.1554 37.6959C39.0552 38.9782 38.0214 39.9048 36.703 39.8938C36.3259 39.8907 35.8319 39.7391 33.8128 39.0067C31.2576 38.0799 31.1371 38.0148 31.1371 37.5604C31.1371 37.3232 31.4083 37.0685 31.6607 37.0685C31.7515 37.0685 32.8843 37.4553 34.1779 37.928C35.4715 38.4008 36.6211 38.7876 36.7324 38.7876C37.5222 38.7876 38.1829 37.9106 37.9709 37.1436C37.8448 36.6868 37.5361 36.4127 36.8093 36.112C36.4566 35.9661 35.3201 35.3867 34.2839 34.8244C33.2476 34.2621 32.0897 33.6769 31.7105 33.5239C29.7546 32.7348 27.6682 32.4412 26.0661 32.7296ZM14.1248 35.3668C14.0144 35.5204 14 36.243 14 41.6094C14 47.2737 14.0094 47.6894 14.1403 47.8452C14.279 48.01 14.3106 48.0118 16.8438 47.9906L19.4071 47.9691L19.5084 47.7738C19.5874 47.6214 19.61 46.2542 19.6109 41.5595C19.612 36.237 19.5977 35.5204 19.4873 35.3668C19.3628 35.1935 19.3569 35.1931 16.8061 35.1931C14.2552 35.1931 14.2493 35.1935 14.1248 35.3668Z" fill="#228B22"/>
</g>
<defs>
<filter id="filter0_b_1283_750" x="-32" y="-32" width="128" height="128" filterUnits="userSpaceOnUse" color-interpolation-filters="sRGB">
<feFlood flood-opacity="0" result="BackgroundImageFix"/>
<feGaussianBlur in="BackgroundImageFix" stdDeviation="16"/>
<feComposite in2="SourceAlpha" operator="in" result="effect1_backgroundBlur_1283_750"/>
<feBlend mode="normal" in="SourceGraphic" in2="effect1_backgroundBlur_1283_750" result="shape"/>
</filter>
</defs>
</svg>
