<svg width="64" height="64" viewBox="0 0 64 64" fill="none" xmlns="http://www.w3.org/2000/svg">
<g filter="url(#filter0_b_1283_745)">
<rect width="64" height="64" rx="4" fill="white" fill-opacity="0.04"/>
<path fill-rule="evenodd" clip-rule="evenodd" d="M25.5606 14.3474C24.7772 14.8265 24.3266 15.7202 24.4393 16.5723L24.5274 17.24L21.756 19.3191L18.9843 21.3983L18.3287 21.1234C17.1988 20.6498 15.9366 21.1401 15.4077 22.2582C15.0154 23.0873 15.0375 23.8138 15.4771 24.5367C16.1422 25.6312 17.3651 25.9798 18.5538 25.414C19.4152 25.0039 19.8231 24.3044 19.8235 23.2366L19.824 22.3461L22.5609 20.2926C24.9178 18.5243 25.3495 18.2667 25.6677 18.4376C26.2116 18.7295 27.5881 18.679 28.0563 18.3501C28.4425 18.0787 28.611 18.1515 31.3451 19.7673C34.0891 21.3892 34.2268 21.4984 34.2275 22.0542C34.229 23.29 35.4176 24.4909 36.6392 24.4909C37.8936 24.4909 39.1081 23.2345 39.015 22.0336C38.9693 21.4443 39.0356 21.3869 41.635 19.762C44.1125 18.2131 44.3293 18.1139 44.687 18.3654C44.8989 18.5143 45.4796 18.636 45.9775 18.636C46.7561 18.636 46.9689 18.5493 47.5025 18.0141C48.2889 17.2253 48.4624 16.5491 48.1267 15.5828C47.6281 14.1475 45.9608 13.5604 44.6538 14.3597C43.9759 14.7742 43.4525 15.8051 43.5408 16.5509C43.5926 16.9868 43.3478 17.1884 40.9447 18.6887L38.2913 20.3451L37.6693 20.049C36.8886 19.6774 36.4651 19.6767 35.5464 20.0454L34.8173 20.3382L31.9508 18.644C29.4048 17.1393 29.0936 16.902 29.166 16.5215C29.2935 15.8529 28.7455 14.7741 28.0678 14.3597C27.2914 13.8849 26.3246 13.88 25.5606 14.3474ZM24.9505 30.8745L24.9525 39.018L25.4602 38.3665C26.3471 37.2282 27.2324 36.5107 28.5102 35.8944L29.7522 35.2952L29.7628 29.0131L29.7732 22.731H27.3608H24.9485L24.9505 30.8745ZM43.5052 32.0378V41.3447H45.9175H48.3299V32.0378V22.731H45.9175H43.5052V32.0378ZM15.6701 34.923V41.3447H18.0825H20.4948V34.923V28.5012H18.0825H15.6701V34.923ZM34.2372 31.8982L34.2478 35.2952L35.5022 35.8948C36.6331 36.4353 37.9441 37.5411 38.7635 38.6457C39.0103 38.9783 39.0404 38.459 39.0456 33.7596L39.0515 28.5012H36.6392H34.2268L34.2372 31.8982ZM29.791 36.4029C28.7448 36.7435 27.2302 37.7948 26.5588 38.6466C26.2706 39.012 25.8132 39.7895 25.5421 40.3743C24.8816 41.7996 24.8573 44.0608 25.4855 45.6718C26.0658 47.1603 27.451 48.628 28.9951 49.3906C30.1274 49.9497 30.3752 50 31.9961 50C33.5114 50 33.9093 49.9311 34.792 49.5159C35.358 49.2495 36.1339 48.7561 36.5163 48.4193L37.2115 47.8071L36.8092 47.3773L36.4067 46.9477L35.5824 47.5789C33.0698 49.5034 29.4202 49.0967 27.5148 46.6801C24.5387 42.9052 27.2187 37.3811 32.0262 37.3811C34.7314 37.3811 37.1612 39.4005 37.6347 42.0427L37.7433 42.6476H36.9129C36.4562 42.6476 36.0825 42.6997 36.0825 42.7632C36.0825 42.8269 36.5969 43.5755 37.2256 44.4269L38.3687 45.975L39.522 44.4509C40.1562 43.6127 40.6391 42.8639 40.5947 42.7872C40.5504 42.7105 40.1867 42.6476 39.7864 42.6476C39.1436 42.6476 39.0454 42.5879 38.9456 42.1357C38.5154 40.1869 37.9478 39.1469 36.6486 37.9281C35.2881 36.6514 34.304 36.2607 32.2784 36.1928C31.1919 36.1563 30.3227 36.2298 29.791 36.4029ZM31.4433 41.0623V43.1997L30.4691 43.6905C29.9332 43.9606 29.4678 44.2056 29.4347 44.2348C29.4017 44.2642 29.5082 44.5473 29.6715 44.8639L29.9682 45.4395L31.2626 44.7858L32.5567 44.132V41.5284V38.9249H32H31.4433V41.0623ZM14 43.1159V43.7706L18.9639 43.7209L23.9278 43.6714L23.9859 43.0664L24.0442 42.4615H19.022H14V43.1159ZM41.8351 43.113V43.7644H45.9175H50V43.113V42.4615H45.9175H41.8351V43.113Z" fill="#228B22"/>
</g>
<defs>
<filter id="filter0_b_1283_745" x="-32" y="-32" width="128" height="128" filterUnits="userSpaceOnUse" color-interpolation-filters="sRGB">
<feFlood flood-opacity="0" result="BackgroundImageFix"/>
<feGaussianBlur in="BackgroundImageFix" stdDeviation="16"/>
<feComposite in2="SourceAlpha" operator="in" result="effect1_backgroundBlur_1283_745"/>
<feBlend mode="normal" in="SourceGraphic" in2="effect1_backgroundBlur_1283_745" result="shape"/>
</filter>
</defs>
</svg>
