<svg width="64" height="64" viewBox="0 0 64 64" fill="none" xmlns="http://www.w3.org/2000/svg">
<g filter="url(#filter0_b_1283_756)">
<rect width="64" height="64" rx="4" fill="white" fill-opacity="0.04"/>
<path fill-rule="evenodd" clip-rule="evenodd" d="M26.9416 17.5702C26.8639 17.8837 26.8341 18.8682 26.8753 19.7577L26.95 21.375H32.5H38.05L38.1247 19.7577C38.1659 18.8682 38.1361 17.8837 38.0584 17.5702L37.9173 17H32.5H27.0827L26.9416 17.5702ZM14.5113 22.6587C13.7504 23.639 13.8451 24.9272 14.7834 26.3627C16.1758 28.4935 20.6834 31.895 23.7401 33.1217C25.5462 33.8465 29.7213 34.8205 30.0745 34.5993C30.1875 34.5285 30.28 34.1885 30.28 33.8438C30.28 32.3325 31.7437 31.4583 33.3653 32.0007C34.31 32.3167 34.72 32.8745 34.72 33.8438C34.72 34.1885 34.8125 34.5285 34.9255 34.5993C35.2787 34.8205 39.4538 33.8465 41.2599 33.1217C44.3166 31.895 48.8242 28.4935 50.2166 26.3627C51.1549 24.9272 51.2496 23.639 50.4887 22.6587L49.9776 22H32.5H15.0224L14.5113 22.6587ZM14 35.084V43H32.5H51V35.084V27.168L49.335 28.7857C46.5191 31.5217 43.2327 33.6217 40.27 34.5788C39.3055 34.8903 35.3021 35.75 34.8162 35.75C34.7632 35.75 34.72 36.248 34.72 36.8568C34.72 38.2273 33.9196 39 32.5 39C31.0804 39 30.28 38.2273 30.28 36.8568C30.28 36.248 30.2368 35.75 30.1838 35.75C29.6979 35.75 25.6945 34.8903 24.73 34.5788C21.7673 33.6217 18.4809 31.5217 15.665 28.7857L14 27.168V35.084ZM14 45.3862C14 46.525 14.1083 46.8825 14.6056 47.3862L15.2109 48H32.5H49.7891L50.3944 47.3862C50.8917 46.8825 51 46.525 51 45.3862V44H32.5H14V45.3862Z" fill="#228B22"/>
</g>
<defs>
<filter id="filter0_b_1283_756" x="-32" y="-32" width="128" height="128" filterUnits="userSpaceOnUse" color-interpolation-filters="sRGB">
<feFlood flood-opacity="0" result="BackgroundImageFix"/>
<feGaussianBlur in="BackgroundImageFix" stdDeviation="16"/>
<feComposite in2="SourceAlpha" operator="in" result="effect1_backgroundBlur_1283_756"/>
<feBlend mode="normal" in="SourceGraphic" in2="effect1_backgroundBlur_1283_756" result="shape"/>
</filter>
</defs>
</svg>
